<svg width="820" height="563" viewBox="0 0 820 563" fill="none" xmlns="http://www.w3.org/2000/svg">
<g clip-path="url(#clip0)">
<path opacity="0.1" d="M476.426 92.821C423.858 90.9372 373.794 73.5456 326.016 54.4967C278.237 35.4477 230.85 14.3397 179.542 4.2494C146.503 -2.24142 108.76 -3.15407 82.1696 15.0042C56.5828 32.4688 48.3125 62.623 43.8713 90.5941C40.5262 111.644 38.5618 133.803 47.7218 153.502C54.0847 167.184 65.3799 178.684 73.1947 191.79C100.397 237.379 81.1803 293.606 51.7075 338.129C37.8857 359.01 21.8575 378.935 11.1957 401.168C0.533998 423.4 -4.3983 448.874 4.9325 471.552C14.185 494.025 36.2131 510.913 60.0846 522.785C108.568 546.879 165.698 553.808 221.406 557.721C344.727 566.373 468.704 562.628 592.353 558.875C638.11 557.488 684.074 556.078 729.084 548.821C754.087 544.791 779.894 538.395 798.043 522.945C821.082 503.341 826.79 470.143 811.353 445.552C785.46 404.315 713.845 394.078 695.76 349.818C685.796 325.461 696.031 298.322 710.507 275.732C741.567 227.266 793.623 184.751 796.371 129.349C798.25 91.3023 773.225 53.2043 734.528 35.1629C693.96 16.2965 637.733 18.6694 607.805 49.9042C576.994 82.1027 522.845 94.4783 476.426 92.821Z" fill="#FF7A63"/>
<g opacity="0.5">
<path opacity="0.5" d="M356.407 293.934L332.592 294.438L328.699 299.921V318.868L333.56 322.358H356.407L361.268 316.875V298.921L356.407 293.934Z" fill="#FF7A63"/>
<path opacity="0.2" d="M355.908 296.928C355.908 296.928 334.037 300.418 332.094 296.928L332.585 294.438L355.908 293.912V296.928Z" fill="white"/>
<path opacity="0.5" d="M358.35 348.781L362.236 352.775V371.758L358.35 375.686C358.35 375.686 344.257 380.673 335.019 376.679L330.642 372.196V353.213L334.535 348.723L358.35 348.781Z" fill="#FF7A63"/>
<path opacity="0.2" d="M357.375 353.271C357.375 353.271 340.364 357.258 334.535 353.271V348.781H358.35L357.375 353.271Z" fill="white"/>
<path opacity="0.5" d="M349.111 322.226V349.197C349.056 350.265 348.591 351.267 347.817 351.984C347.044 352.701 346.025 353.075 344.983 353.023C343.942 353.075 342.923 352.701 342.149 351.984C341.376 351.267 340.911 350.265 340.855 349.197V322.226C340.855 319.934 342.99 318.16 345.467 318.422C346.425 318.483 347.328 318.905 348.001 319.607C348.674 320.31 349.069 321.243 349.111 322.226Z" fill="#FF7A63"/>
<path opacity="0.5" d="M394.548 294.708L370.734 295.204L366.841 300.688V319.634L371.702 323.124H394.548L399.409 317.641V299.687L394.548 294.708Z" fill="#FF7A63"/>
<path opacity="0.2" d="M394.057 297.694C394.057 297.694 372.186 301.184 370.243 297.694L370.727 295.204L394.057 294.708V297.694Z" fill="white"/>
<path opacity="0.5" d="M396.477 349.548L400.363 353.541V372.525L396.477 376.475C396.477 376.475 382.378 381.462 373.147 377.468L368.769 372.985V354.038L372.663 349.548H396.477Z" fill="#FF7A63"/>
<path opacity="0.2" d="M395.516 354.038C395.516 354.038 378.506 358.025 372.677 354.038V349.548H396.477L395.516 354.038Z" fill="white"/>
<path opacity="0.5" d="M387.225 322.993V349.964C387.168 351.031 386.702 352.032 385.928 352.749C385.155 353.465 384.137 353.84 383.097 353.79C382.054 353.841 381.035 353.468 380.26 352.751C379.485 352.035 379.018 351.033 378.961 349.964V322.993C378.961 320.7 381.097 318.926 383.581 319.189C384.539 319.249 385.441 319.672 386.114 320.374C386.787 321.076 387.182 322.009 387.225 322.993Z" fill="#FF7A63"/>
<path opacity="0.5" d="M443.103 309.128L423.494 309.544L420.292 314.056V329.652L424.292 332.529H443.103L447.103 328.009V313.231L443.103 309.128Z" fill="#FF7A63"/>
<path opacity="0.2" d="M442.697 311.596C442.697 311.596 424.697 314.465 423.096 311.596L423.494 309.544L442.711 309.128L442.697 311.596Z" fill="white"/>
<path opacity="0.5" d="M444.697 354.279L447.9 357.564V373.16L444.697 376.446C444.697 376.446 433.096 380.549 425.48 377.263L421.879 373.569V357.973L425.082 354.279H444.697Z" fill="#FF7A63"/>
<path opacity="0.2" d="M443.9 357.973C443.9 357.973 429.893 361.259 425.096 357.973V354.279H444.697L443.9 357.973Z" fill="white"/>
<path opacity="0.5" d="M437.096 332.419V354.622C437.05 355.502 436.666 356.327 436.028 356.916C435.391 357.506 434.551 357.813 433.694 357.769C432.837 357.813 431.998 357.506 431.362 356.916C430.725 356.326 430.343 355.501 430.299 354.622V332.419C430.326 331.949 430.448 331.491 430.659 331.073C430.869 330.654 431.162 330.286 431.519 329.991C431.877 329.696 432.29 329.481 432.733 329.36C433.176 329.238 433.639 329.214 434.092 329.287C434.881 329.336 435.625 329.684 436.179 330.262C436.734 330.84 437.06 331.609 437.096 332.419Z" fill="#FF7A63"/>
<path opacity="0.5" d="M474.497 309.763L454.889 310.172L451.693 314.684V330.287L455.693 333.156H474.497L478.497 328.644V313.866L474.497 309.763Z" fill="#FF7A63"/>
<path opacity="0.2" d="M474.099 312.224C474.099 312.224 456.092 315.1 454.49 312.224L454.889 310.172L474.106 309.763L474.099 312.224Z" fill="white"/>
<path opacity="0.5" d="M476.098 354.914L479.294 358.192V373.788L476.098 377.073C476.098 377.073 464.49 381.177 456.882 377.899L453.288 374.226V358.609L456.49 354.914H476.098Z" fill="#FF7A63"/>
<path opacity="0.2" d="M475.294 358.609C475.294 358.609 461.295 361.887 456.49 358.609V354.914H476.099L475.294 358.609Z" fill="white"/>
<path opacity="0.5" d="M468.497 333.047V355.243C468.451 356.122 468.067 356.947 467.43 357.537C466.792 358.127 465.953 358.433 465.095 358.39C464.238 358.433 463.398 358.127 462.761 357.537C462.123 356.947 461.739 356.122 461.693 355.243V333.047C461.693 331.163 463.472 329.703 465.494 329.922C466.282 329.97 467.026 330.316 467.58 330.893C468.135 331.47 468.462 332.237 468.497 333.047Z" fill="#FF7A63"/>
</g>
<path d="M746.649 390.34C745.119 387.5 742.258 385.631 739.247 384.769C736.201 384.018 733.051 383.815 729.938 384.17C724.907 384.537 719.92 385.381 715.041 386.689C712.016 387.507 708.877 388.602 706.835 391.07C706.778 391.143 706.714 391.231 706.65 391.304C703.525 392.143 700.422 393.436 697.397 394.487C694.362 395.52 691.273 396.381 688.145 397.064C692.237 394.677 696.223 392.151 699.596 388.777C701.191 387.19 702.622 385.438 703.867 383.55C706.178 384.229 708.605 384.396 710.984 384.039C715.803 383.192 719.696 379.658 723.318 376.212L734.969 365.216C736.827 363.464 738.713 361.668 739.952 359.375C741.624 356.185 741.774 352.388 741.816 348.745C741.873 343.736 741.816 338.727 741.674 333.726L745.361 336.646C744.8 330.478 745.919 324.27 748.592 318.715C749.873 316.064 751.553 313.428 751.588 310.457C751.645 305.872 747.802 302.265 743.866 300.235C739.93 298.205 735.503 296.906 732.279 293.788C727.482 289.152 726.585 281.756 724.215 275.403C722.809 271.926 721.144 268.564 719.233 265.35L714.621 257.099C712.302 252.752 709.715 248.559 706.877 244.548C702.08 238.058 696.038 232.706 690.038 227.412L658.836 199.835C651.248 193.126 643.633 186.408 635.427 180.538C618.779 168.63 599.997 160.452 581.335 152.355C576.638 150.311 571.748 148.237 566.666 148.486C562.838 148.74 559.211 150.333 556.389 152.998C553.715 152.165 551.099 151.145 548.56 149.946L548.361 149.851C548.418 149.42 548.482 148.997 548.524 148.566C548.588 147.996 548.624 147.427 548.667 146.85C550.072 146.628 551.433 146.172 552.695 145.499C553.336 145.189 553.902 144.738 554.353 144.178C554.927 143.203 555.22 142.082 555.2 140.943C555.77 133.314 556.339 125.611 555.727 118.018C555.115 110.424 553.257 102.736 549.321 96.2817C548.104 94.2811 546.581 92.3317 544.467 91.4629C541.62 90.2947 538.325 91.3825 535.286 90.8568C530.026 89.9442 526.745 84.6654 522.938 80.7738C513.308 70.9244 496.838 69.4423 485.721 77.4152C481.508 80.4453 478.134 84.5559 474.376 88.1773C470.618 91.7987 466.213 95.077 461.138 95.7852C460.202 95.8258 459.287 96.075 458.455 96.5153C457.416 97.187 456.946 98.4794 456.547 99.6768C455.124 103.809 453.757 108.051 453.323 112.374C453.273 112.111 453.231 111.848 453.188 111.585C452.994 113.186 452.954 114.802 453.067 116.411C453.209 118.462 453.787 120.455 454.761 122.252C455.571 123.96 456.953 125.313 458.654 126.064C459.858 126.5 461.128 126.711 462.405 126.684H462.967C462.761 127.246 462.561 127.809 462.376 128.378C460.792 133.203 459.986 138.261 459.992 143.353C459.992 168.907 479.871 189.614 504.411 189.614C507.365 189.599 510.309 189.281 513.201 188.665C514.162 188.978 515.123 189.3 516.048 189.643C517.943 190.285 519.801 191.036 521.614 191.892C522.382 192.264 525.493 194.126 529.251 196.528L528.994 197.076C525.328 200.588 522.638 205.038 521.201 209.969C519.764 214.9 519.632 220.134 520.817 225.134C523.535 235.991 532.453 245.3 531.557 256.479C531.428 258.07 531.101 259.684 531.364 261.261C531.727 263.451 533.172 265.233 534.617 266.854C535.87 268.27 537.172 269.643 538.496 270.986C538.389 278.12 537.784 285.246 537.129 292.357C537.073 292.978 537.058 293.605 537.051 294.241C537.09 297.315 538.178 300.279 540.126 302.615C542.19 305.193 543.016 309.055 542.624 312.501C542.062 317.437 539.692 321.912 538.105 326.593C530.944 347.642 539.742 371.379 534.788 393.114C533.571 398.466 531.521 403.672 531.229 409.177C531.066 412.616 531.592 416.223 530.304 419.399C529.187 422.159 526.859 424.152 524.66 426.087C521.552 428.818 518.525 431.641 515.578 434.556C511.125 432.059 506.528 429.84 501.813 427.912C501.045 427.595 500.261 427.317 499.465 427.08C493.899 421.735 486.881 418.318 480.291 414.39C474.824 411.141 469.615 407.491 464.376 403.84C459.394 400.335 454.305 396.801 450.092 392.297C447.957 390.019 446.056 387.507 443.757 385.426C441.737 383.701 439.596 382.129 437.352 380.724C427.253 374.013 417.626 366.584 408.541 358.492C401.616 352.33 395.95 344.393 388.548 338.866C384.015 335.478 378.741 332.39 373.189 333.025C371.422 333.238 369.707 333.78 368.129 334.624C366.657 333.984 365.085 333.623 363.488 333.558C358.976 333.412 354.834 335.924 350.962 338.34C328.186 352.539 305.055 366.105 281.568 379.038C276.828 381.651 272.059 384.243 267.533 387.237C258.701 393.097 250.875 400.417 244.373 408.9C243.177 410.455 241.668 412.222 239.768 411.988C239.248 411.906 238.748 411.723 238.295 411.448C235.37 409.82 233.576 406.673 231.889 403.687C230.665 401.496 229.341 399.211 227.548 397.546C227.164 396.51 226.652 395.528 226.025 394.626C228.551 388.23 230.729 381.681 232.75 375.088C233.804 371.627 234.822 368.144 236.167 364.785C239.483 356.477 244.772 348.949 246.643 340.158C247.092 338.034 247.355 335.851 247.704 333.704C268.166 329.572 283.611 310.822 283.611 288.305C283.611 262.75 263.725 242.044 239.192 242.044C214.658 242.044 194.78 262.75 194.78 288.305C194.758 296.083 196.643 303.742 200.262 310.577C203.881 317.412 209.118 323.203 215.491 327.418C215.491 327.505 215.491 327.593 215.491 327.673C215.448 329.142 215.308 330.605 215.071 332.054C214.253 336.946 212.224 341.546 210.181 346.007C208.829 348.993 207.477 351.994 206.075 354.973C205.402 354.834 204.749 354.608 204.132 354.301C202.929 353.615 202.402 352.111 201.947 350.782C199.931 344.693 197.463 338.771 194.566 333.069C193.436 330.645 192 328.384 190.296 326.344C187.292 322.971 183.178 320.971 179.2 318.948C178.488 318.598 177.826 318.218 177.143 317.882C176.552 317.432 175.934 317.019 175.292 316.648C171.983 314.728 168.31 313.348 165.549 310.661C163.478 308.646 162.054 306.025 160.118 303.886C156.894 300.33 152.446 298.3 148.126 296.365C145.876 295.358 143.514 294.328 141.058 294.467C140.712 294.484 140.367 294.523 140.026 294.584C139.436 294.687 138.851 294.824 138.275 294.993C137.715 294.687 137.185 294.325 136.695 293.912C134.055 291.824 133.03 288.239 132.169 284.902C130.745 279.324 129.243 273.549 130.126 267.839C130.279 266.854 130.489 265.879 130.752 264.919C130.973 264.546 131.186 264.189 131.378 263.787C137.045 262.04 142.222 258.929 146.479 254.713C150.736 250.497 153.949 245.299 155.851 239.551C157.753 233.804 158.288 227.673 157.412 221.67C156.536 215.667 154.275 209.966 150.816 205.041C150.453 204.53 150.104 204.034 149.698 203.537L150.125 203.296C154.061 200.828 154.958 194.929 153.136 190.534C151.314 186.138 147.442 183.035 143.521 180.597C142.951 180.239 142.375 179.903 141.791 179.567L141.293 179.29C140.852 179.041 140.417 178.801 139.976 178.56L139.457 178.289C138.937 178.019 138.418 177.764 137.898 177.515L137.663 177.399C137.015 177.099 136.368 176.807 135.713 176.53C135.079 176.26 134.446 176.011 133.805 175.8L133.542 175.697C132.937 175.471 132.325 175.259 131.713 175.055L131.578 175.011C127.101 173.518 122.434 172.711 117.727 172.616C113.12 172.645 108.528 173.166 104.027 174.172C99.6436 174.986 95.3516 176.25 91.2155 177.946C84.3796 180.918 78.3529 185.554 73.6571 191.454C72.6673 191.531 71.6861 191.697 70.7247 191.95C66.8743 192.95 63.4081 195.155 60.2409 197.652C57.5882 199.653 55.2378 202.044 53.266 204.749C50.9436 208.215 49.3422 212.135 48.5614 216.263C45.864 229.208 49.1806 242.548 51.6219 255.559C54.0631 268.569 55.4723 282.749 49.4867 294.423C47.2305 298.804 44.0277 302.608 41.6576 306.908C39.2876 311.209 37.6435 316.4 39.01 321.168C40.6683 326.958 46.1273 330.601 48.9742 335.858C52.3051 341.984 51.387 350.212 47.0312 355.571C46.839 355.805 46.6469 356.039 46.4405 356.301C46.2341 356.564 45.9423 356.842 45.6718 357.09C50.1628 358.711 55.1663 356.966 59.1947 354.367C62.4163 352.414 65.1485 349.716 67.1732 346.489C72.2621 337.917 69.9774 326.834 71.771 316.926C74.1268 303.951 83.6356 292.379 82.326 279.244C81.4434 270.431 75.835 263.064 71.4294 255.486C68.5009 250.399 66.0464 245.041 64.0985 239.481C64.0202 239.248 63.9419 239.007 63.8565 238.751C62.5683 234.991 61.579 231.005 62.2409 227.069C62.4666 225.794 62.8394 224.552 63.3512 223.367C63.3512 223.506 63.3512 223.652 63.3512 223.791C63.4378 227.597 64.2629 231.348 65.7782 234.823C70.2265 244.315 80.931 248.695 87.728 256.391C88.0127 256.712 88.2832 257.041 88.5536 257.377C88.6319 257.464 88.7031 257.559 88.7743 257.654L89.3507 258.384L89.5927 258.727C89.7707 258.983 89.9486 259.238 90.1123 259.501L90.3329 259.83C90.5607 260.202 90.7885 260.56 91.002 260.962C92.7315 258.998 94.5179 256.931 95.2154 254.39C95.2795 254.171 95.3222 253.945 95.3649 253.719C95.4218 253.777 95.4716 253.843 95.5286 253.909C95.6638 254.69 95.7706 255.471 95.8702 256.26C95.8701 257.386 95.9871 258.51 96.219 259.611C96.7599 266.62 96.3257 273.819 95.8702 280.85C95.6282 284.61 96.5819 290.196 94.2475 292.999L94.1763 293.08C94.0394 293.243 93.8894 293.395 93.7279 293.532C93.3293 293.956 92.9236 294.372 92.5464 294.81C84.7174 303.864 81.1587 316.714 81.3438 329.024C81.5288 343.035 85.8917 356.608 90.8383 369.641C92.5658 374.399 94.6011 379.033 96.9307 383.513C98.1332 385.932 99.7236 388.126 101.635 390.004C103.635 391.822 106.069 393.019 108.468 394.188C109.066 394.48 109.671 394.764 110.269 395.064L111.799 395.794L123.45 401.474C125.585 404.694 127.649 408.002 129.734 411.316C130.033 411.784 130.325 412.266 130.631 412.733C132.909 416.383 135.2 420.034 137.535 423.582L157.172 453.415C158.595 455.606 160.083 457.796 162.083 459.417C162.652 459.876 163.267 460.27 163.919 460.593C164.25 460.756 164.59 460.9 164.937 461.023C164.506 461.687 164.321 462.488 164.417 463.279C164.679 464.055 165.179 464.723 165.841 465.185C170.282 468.953 175.214 472.924 176.609 478.714C177.598 482.84 176.609 487.257 177.499 491.404C179.129 498.88 186.338 503.414 193.157 506.291C208.438 512.731 225.412 515.206 241.647 512.212C257.882 509.219 273.305 500.582 283.817 487.388C287.048 483.314 289.803 478.868 292.87 474.662C295.006 471.698 297.354 468.872 299.781 466.149C302.4 464.92 304.924 463.49 307.333 461.87C312.464 458.373 316.884 453.883 321.567 449.721C325.062 446.596 328.72 443.646 331.93 440.229C334.812 436.988 337.505 433.575 339.994 430.008C345.688 422.268 351.569 414.682 357.638 407.25C360.883 403.27 364.321 399.218 368.855 397.028L369.061 396.94C369.602 400.211 372.129 402.986 373.901 405.811C381.232 417.493 388.904 429.518 400.235 436.966C406.441 441.04 413.459 443.537 420.462 445.815C438.256 451.583 456.334 456.11 474.426 460.644C475.024 459.475 475.607 458.395 476.262 457.344C476.542 457.648 476.804 457.97 477.045 458.307C477.123 458.424 477.187 458.548 477.266 458.665C477.135 458.691 477.007 458.728 476.881 458.775C475.72 459.329 474.807 460.316 474.326 461.534C472.376 465.543 472.191 470.194 472.099 474.677C472.034 479.057 472.099 483.438 472.099 487.819C471.995 489.454 472.237 491.093 472.81 492.623C474.191 495.544 477.7 496.632 480.839 497.004C486.29 497.625 491.785 497.099 497.208 496.347C497.522 497.659 498.033 498.913 498.724 500.063C501.771 505.174 507.03 508.547 512.504 510.526C517.977 512.505 523.777 513.293 529.464 514.454C539.564 516.513 549.898 519.806 559.94 517.484C563.947 516.557 567.77 514.761 571.777 513.972C580.951 512.191 590.46 515.797 599.698 514.352C604.16 513.622 608.381 511.796 612.423 509.701C614.461 508.784 616.31 507.475 617.868 505.846C619.349 504.137 620.238 501.713 619.626 499.501C619.277 498.231 618.48 497.15 617.947 495.953C617.231 494.037 616.825 492.015 616.744 489.966C616.001 482.211 614.721 474.52 612.915 466.952C612.865 466.74 612.808 466.521 612.751 466.302C619.733 463.462 625.989 459.001 632.167 454.562L645.455 445.026C649.725 441.938 654.103 438.835 658.9 436.674C666.259 433.359 674.408 432.41 682.429 432.417C685.711 432.417 688.999 432.585 692.266 432.892C691.849 433.358 691.536 433.911 691.347 434.512C690.693 436.601 691.732 438.893 693.276 440.419C694.821 441.945 696.835 442.807 698.65 443.865C703.664 446.762 707.84 450.972 710.749 456.066C712.571 459.271 713.895 463.163 712.742 466.689C711.319 471.114 706.244 474.166 706.536 478.824C706.707 481.569 708.863 483.84 711.319 484.855C713.774 485.87 716.5 485.855 719.148 485.775C723.482 485.636 727.945 485.293 731.824 483.27C734.436 481.905 736.649 479.846 738.82 477.809C740.799 475.947 742.82 474.012 743.944 471.501C744.998 469.135 745.161 466.456 745.211 463.856C745.425 451.619 743.368 439.215 745.738 427.226C746.45 423.575 747.588 420.005 748.193 416.325C749.147 410.484 748.784 404.585 748.421 398.714C748.243 395.823 748.03 392.844 746.649 390.34Z" fill="url(#paint0_linear)"/>
<path opacity="0.06" d="M596.274 221.104C593.477 223.039 592.502 226.777 592.146 230.223C590.63 244.877 596.523 259.385 596.132 274.111C595.819 285.83 591.563 297.008 587.363 307.909C580.203 326.505 576.474 346.7 575.029 366.64C573.584 386.58 571.47 407.345 561.036 424.21C558.666 428.029 555.905 431.577 553.585 435.418C551.151 439.434 549.222 443.741 547.072 447.918C540.739 460.252 532.576 471.501 522.873 481.262C520.027 484.11 517.009 486.87 513.379 488.513C511.04 489.554 508.521 490.104 505.971 490.132C503.422 490.16 500.892 489.664 498.532 488.673C493.664 486.607 489.564 481.949 489.365 476.546C489.187 471.712 491.999 467.354 494.817 463.484C504.37 450.374 515.354 438.429 527.557 427.883C529.77 425.97 532.105 423.991 533.25 421.261C534.539 418.114 534.012 414.544 534.176 411.134C534.439 405.694 536.503 400.532 537.734 395.232C542.717 373.7 533.863 350.19 541.065 329.331C542.667 324.694 545.044 320.262 545.606 315.378C546.005 311.961 545.179 308.142 543.094 305.58C541.141 303.277 540.049 300.337 540.012 297.285C540.012 296.657 540.012 296.037 540.083 295.424C540.951 285.866 541.813 276.265 541.343 266.678C540.873 257.092 539.016 247.454 534.702 238.934C532.468 234.516 529.578 230.384 528.197 225.616C525.977 217.899 528.026 209.553 531.336 202.252C533.92 196.543 537.364 191.103 542.176 187.19C551.115 179.925 564.496 179.085 574.282 185.094C581.499 189.519 586.438 196.959 590.445 204.545C593.321 210.086 596.317 214.781 596.274 221.104Z" fill="black"/>
<path d="M572.552 162.913C571.186 166.695 569.826 170.477 568.474 174.259C567.577 176.742 566.688 179.246 565.762 181.728C561.492 193.169 556.716 204.428 549.243 213.898C550.361 212.481 539.848 205.355 532.097 200.493C528.318 198.105 525.187 196.265 524.418 195.9C522.591 195.053 520.721 194.308 518.817 193.666C515.863 192.644 512.874 191.76 509.92 190.658C503.087 188.124 507.863 184.32 510.788 180.232C520.361 166.841 522.176 148.544 533.044 136.241C537.03 144.01 543.335 150.266 551.037 154.093C551.186 154.173 551.343 154.246 551.499 154.312C557.955 157.408 565.086 158.744 571.762 161.336C572.125 161.475 572.545 161.672 572.666 162.066C572.711 162.354 572.672 162.649 572.552 162.913Z" fill="#A1616A"/>
<path d="M553.969 433.366C550.877 437.91 548.953 443.181 548.374 448.691C547.796 454.2 548.582 459.771 550.659 464.886C551.185 466.315 552.003 467.612 553.058 468.69C554.402 469.767 555.967 470.516 557.634 470.88C571.769 475.005 586.858 474.195 601.335 471.61C606.239 470.836 611.058 469.577 615.726 467.85C622.893 465.039 629.292 460.549 635.612 456.066L648.978 446.618C653.305 443.559 657.668 440.485 662.501 438.338C669.903 435.06 678.102 434.118 686.166 434.125C693.093 434.134 700.003 434.811 706.806 436.148C711.34 437.046 716.77 437.973 719.959 434.578C721.781 432.658 722.322 429.847 722.678 427.197C724.086 416.885 724.06 406.42 722.6 396.115C722.564 395.248 722.257 394.416 721.724 393.742C721.222 393.305 720.61 393.019 719.959 392.917C713.66 391.457 707.34 394.487 701.219 396.568C688.5 400.905 674.842 401.423 661.903 404.993C648.323 408.739 635.569 415.829 621.534 417.267C614.843 417.953 608.125 417.355 601.42 417.508C595.2 417.647 589.399 419.852 583.307 420.114C571.563 420.647 561.35 422.75 553.969 433.366Z" fill="#A1616A"/>
<path opacity="0.06" d="M553.969 433.366C550.877 437.91 548.953 443.181 548.374 448.691C547.796 454.2 548.582 459.771 550.659 464.886C551.185 466.315 552.003 467.612 553.058 468.69C554.402 469.767 555.967 470.516 557.634 470.88C571.769 475.005 586.858 474.195 601.335 471.61C606.239 470.836 611.058 469.577 615.726 467.85C622.893 465.039 629.292 460.549 635.612 456.066L648.978 446.618C653.305 443.559 657.668 440.485 662.501 438.338C669.903 435.06 678.102 434.118 686.166 434.125C693.093 434.134 700.003 434.811 706.806 436.148C711.34 437.046 716.77 437.973 719.959 434.578C721.781 432.658 722.322 429.847 722.678 427.197C724.086 416.885 724.06 406.42 722.6 396.115C722.564 395.248 722.257 394.416 721.724 393.742C721.222 393.305 720.61 393.019 719.959 392.917C713.66 391.457 707.34 394.487 701.219 396.568C688.5 400.905 674.842 401.423 661.903 404.993C648.323 408.739 635.569 415.829 621.534 417.267C614.843 417.953 608.125 417.355 601.42 417.508C595.2 417.647 589.399 419.852 583.307 420.114C571.563 420.647 561.35 422.75 553.969 433.366Z" fill="black"/>
<path d="M565.456 417.931C565.122 419.545 564.823 421.253 565.293 422.83C565.875 424.381 566.86 425.74 568.14 426.759C580.239 437.871 597.527 440.171 613.69 441.974C618.068 442.464 622.523 442.953 626.857 442.142C630.808 441.412 634.494 439.623 638.131 437.856C645.96 434.053 653.832 430.205 660.544 424.612C667.127 419.136 672.408 412.127 679.227 406.965C686.977 401.124 696.507 397.78 703.426 390.902C708.427 385.952 711.752 379.489 712.913 372.459C713.696 367.662 713.44 362.763 712.913 357.93C712.351 352.373 711.447 346.722 708.87 341.801C705.888 336.106 700.878 331.806 695.589 328.272C684.401 320.81 671.227 316.181 657.868 316.298C639.363 316.466 622.281 327.513 609 339.917C594.952 353.056 583.583 368.92 575.549 386.594C571.013 396.604 567.626 407.12 565.456 417.931Z" fill="#37392E"/>
<path opacity="0.06" d="M565.456 417.931C565.122 419.545 564.823 421.253 565.293 422.83C565.875 424.381 566.86 425.74 568.14 426.759C580.239 437.871 597.527 440.171 613.69 441.974C618.068 442.464 622.523 442.953 626.857 442.142C630.808 441.412 634.494 439.623 638.131 437.856C645.96 434.053 653.832 430.205 660.544 424.612C667.127 419.136 672.408 412.127 679.227 406.965C686.977 401.124 696.507 397.78 703.426 390.902C708.427 385.952 711.752 379.489 712.913 372.459C713.696 367.662 713.44 362.763 712.913 357.93C712.351 352.373 711.447 346.722 708.87 341.801C705.888 336.106 700.878 331.806 695.589 328.272C684.401 320.81 671.227 316.181 657.868 316.298C639.363 316.466 622.281 327.513 609 339.917C594.952 353.056 583.583 368.92 575.549 386.594C571.013 396.604 567.626 407.12 565.456 417.931Z" fill="black"/>
<path d="M596.274 221.104C593.477 223.039 592.502 226.777 592.146 230.223C590.63 244.877 596.523 259.385 596.132 274.111C595.819 285.83 591.563 297.008 587.363 307.909C580.203 326.505 576.474 346.7 575.029 366.64C573.584 386.58 571.47 407.345 561.036 424.21C558.666 428.029 555.905 431.577 553.585 435.418C551.151 439.434 549.222 443.741 547.072 447.918C540.739 460.252 532.576 471.501 522.873 481.262C520.027 484.11 517.009 486.87 513.379 488.513C511.04 489.554 508.521 490.104 505.971 490.132C503.422 490.16 500.892 489.664 498.532 488.673C493.664 486.607 489.564 481.949 489.365 476.546C489.187 471.712 491.999 467.354 494.817 463.484C504.37 450.374 515.354 438.429 527.557 427.883C529.77 425.97 532.105 423.991 533.25 421.261C534.539 418.114 534.012 414.544 534.176 411.134C534.439 405.694 536.503 400.532 537.734 395.232C542.717 373.7 533.863 350.19 541.065 329.331C542.667 324.694 545.044 320.262 545.606 315.378C546.005 311.961 545.179 308.142 543.094 305.58C541.141 303.277 540.049 300.337 540.012 297.285C540.012 296.657 540.012 296.037 540.083 295.424C540.951 285.866 541.813 276.265 541.343 266.678C540.873 257.092 539.016 247.454 534.702 238.934C532.468 234.516 529.578 230.384 528.197 225.616C525.977 217.899 528.026 209.553 531.336 202.252C533.92 196.543 537.364 191.103 542.176 187.19C551.115 179.925 564.496 179.085 574.282 185.094C581.499 189.519 586.438 196.959 590.445 204.545C593.321 210.086 596.317 214.781 596.274 221.104Z" fill="#A1616A"/>
<path d="M556.951 270.154C571.829 270.154 583.89 250.74 583.89 226.792C583.89 202.843 571.829 183.43 556.951 183.43C542.073 183.43 530.012 202.843 530.012 226.792C530.012 250.74 542.073 270.154 556.951 270.154Z" fill="#A1616A"/>
<path d="M488.248 453.386C489.043 454.536 489.583 455.852 489.829 457.24C490.075 458.627 490.021 460.054 489.671 461.418C492.21 463.288 495.297 464.21 498.418 464.031C501.516 463.858 504.562 463.139 507.422 461.907C509.909 460.976 512.265 459.709 514.425 458.139C518.14 455.321 520.831 451.291 522.966 447.114C524.169 444.807 525.194 441.821 523.678 439.747C523.082 439.044 522.356 438.468 521.543 438.054C516.059 434.844 510.349 432.06 504.461 429.723C502.844 428.958 501.088 428.555 499.308 428.54C497.123 428.664 495.137 429.891 493.401 431.263C489.498 434.377 486.35 438.375 484.205 442.945C483.536 444.406 481.515 447.874 482.518 449.378C482.974 450.071 484.654 450.312 485.365 450.75C486.497 451.41 487.479 452.308 488.248 453.386Z" fill="#FBBEBE"/>
<path opacity="0.03" d="M488.248 453.386C489.043 454.536 489.583 455.852 489.829 457.24C490.075 458.627 490.021 460.054 489.671 461.418C492.21 463.288 495.297 464.21 498.418 464.031C501.516 463.858 504.562 463.139 507.422 461.907C509.909 460.976 512.265 459.709 514.425 458.139C518.14 455.321 520.831 451.291 522.966 447.114C524.169 444.807 525.194 441.821 523.678 439.747C523.082 439.044 522.356 438.468 521.543 438.054C516.059 434.844 510.349 432.06 504.461 429.723C502.844 428.958 501.088 428.555 499.308 428.54C497.123 428.664 495.137 429.891 493.401 431.263C489.498 434.377 486.35 438.375 484.205 442.945C483.536 444.406 481.515 447.874 482.518 449.378C482.974 450.071 484.654 450.312 485.365 450.75C486.497 451.41 487.479 452.308 488.248 453.386Z" fill="black"/>
<path d="M517.721 436.469C529.763 438.762 540.838 444.734 552.674 447.954C557.464 449.254 562.396 450.144 566.972 452.057C571.549 453.97 575.862 457.241 577.833 461.899C578.667 464.135 579.219 466.471 579.478 468.85C579.99 472.216 580.41 475.976 578.46 478.736C576.403 481.657 572.517 482.299 569.036 482.73C556.524 484.256 544.012 485.789 531.457 486.87C528.915 487.028 526.384 487.337 523.877 487.797C521.813 488.22 519.799 488.863 517.749 489.359C515.094 489.995 512.397 490.396 509.706 490.82C502.824 491.835 495.863 492.849 488.952 492.076C485.799 491.718 482.269 490.674 480.881 487.753C480.305 486.24 480.062 484.614 480.17 482.993C480.134 478.656 480.098 474.326 480.17 469.997C480.234 465.55 480.447 460.936 482.412 456.971C482.899 455.757 483.817 454.779 484.981 454.233C485.697 454.023 486.446 453.953 487.187 454.029C490.888 454.16 494.717 454.321 498.027 456.015C500.653 457.351 502.788 459.578 505.465 460.79C510.532 463.097 516.646 461.439 521.777 463.608C522.973 459.826 522.703 456 521.813 452.123C520.923 448.246 519.678 444.442 519.301 440.485C519.286 439.615 519.122 438.755 518.817 437.944C518.432 437.134 518.56 436.345 517.721 436.469Z" fill="#464353"/>
<path opacity="0.06" d="M517.721 436.469C529.763 438.762 540.838 444.734 552.674 447.954C557.464 449.254 562.396 450.144 566.972 452.057C571.549 453.97 575.862 457.241 577.833 461.899C578.667 464.135 579.219 466.471 579.478 468.85C579.99 472.216 580.41 475.976 578.46 478.736C576.403 481.657 572.517 482.299 569.036 482.73C556.524 484.256 544.012 485.789 531.457 486.87C528.915 487.028 526.384 487.337 523.877 487.797C521.813 488.22 519.799 488.863 517.749 489.359C515.094 489.995 512.397 490.396 509.706 490.82C502.824 491.835 495.863 492.849 488.952 492.076C485.799 491.718 482.269 490.674 480.881 487.753C480.305 486.24 480.062 484.614 480.17 482.993C480.134 478.656 480.098 474.326 480.17 469.997C480.234 465.55 480.447 460.936 482.412 456.971C482.899 455.757 483.817 454.779 484.981 454.233C485.697 454.023 486.446 453.953 487.187 454.029C490.888 454.16 494.717 454.321 498.027 456.015C500.653 457.351 502.788 459.578 505.465 460.79C510.532 463.097 516.646 461.439 521.777 463.608C522.973 459.826 522.703 456 521.813 452.123C520.923 448.246 519.678 444.442 519.301 440.485C519.286 439.615 519.122 438.755 518.817 437.944C518.432 437.134 518.56 436.345 517.721 436.469Z" fill="black"/>
<path d="M115.443 311.975C113.016 311.187 110.674 313.392 109.315 315.626C103.664 324.738 104.126 336.902 108.646 346.656C109.721 349.13 111.204 351.395 113.03 353.352C115.478 355.827 118.631 357.411 121.571 359.193C129.727 364.136 136.717 370.868 142.04 378.906C145.521 384.17 148.261 389.96 152.211 394.859C161.933 406.921 177.911 412.382 187.342 424.648C189.598 427.569 191.506 430.957 194.516 433.081C196.306 434.344 198.392 435.093 200.558 435.252C202.724 435.411 204.893 434.973 206.839 433.985C208.786 432.997 210.44 431.493 211.63 429.63C212.821 427.766 213.505 425.611 213.612 423.385C217.277 417.858 220.274 411.754 223.128 405.738C227.351 396.555 230.919 387.071 233.804 377.358C234.864 373.927 235.889 370.473 237.241 367.136C240.579 358.901 245.896 351.446 247.775 342.743C248.529 339.253 248.715 335.624 249.811 332.236C250.792 329.196 252.472 326.441 254.707 324.205C262.109 316.823 266.095 306.069 271.981 297.38C274.372 293.868 276.856 290.364 278.436 286.392C280.016 282.42 280.621 277.871 279.148 273.856C277.675 269.84 273.824 266.598 269.654 266.824C267.787 267.023 265.976 267.593 264.323 268.504C258.575 271.302 253.303 275.029 248.707 279.543C246.698 281.527 244.797 283.623 243.014 285.822C234.316 296.482 227.512 309.42 226.914 323.307C226.715 328.067 227.085 333.346 224.138 337.033C216.01 347.219 213.398 361.222 206.466 372.306C203.256 377.417 199.577 382.71 194.089 385.039C193.279 385.439 192.382 385.62 191.484 385.565C189.292 385.309 188.032 382.944 187.107 380.885C183.491 372.854 179.307 365.106 174.588 357.703C172.723 354.783 170.666 351.789 167.684 350.073C165.648 348.913 163.285 348.394 161.371 347.036C158.702 345.145 157.307 341.925 155.919 338.91C151.421 329.171 145.726 320.063 138.973 311.808C135.884 308.033 131.813 304.134 127.044 304.696C122.503 305.244 119.727 310.143 115.443 311.975Z" fill="#FBBEBE"/>
<path opacity="0.03" d="M115.443 311.975C113.016 311.187 110.674 313.392 109.315 315.626C103.664 324.738 104.126 336.902 108.646 346.656C109.721 349.13 111.204 351.395 113.03 353.352C115.478 355.827 118.631 357.411 121.571 359.193C129.727 364.136 136.717 370.868 142.04 378.906C145.521 384.17 148.261 389.96 152.211 394.859C161.933 406.921 177.911 412.382 187.342 424.648C189.598 427.569 191.506 430.957 194.516 433.081C196.306 434.344 198.392 435.093 200.558 435.252C202.724 435.411 204.893 434.973 206.839 433.985C208.786 432.997 210.44 431.493 211.63 429.63C212.821 427.766 213.505 425.611 213.612 423.385C217.277 417.858 220.274 411.754 223.128 405.738C227.351 396.555 230.919 387.071 233.804 377.358C234.864 373.927 235.889 370.473 237.241 367.136C240.579 358.901 245.896 351.446 247.775 342.743C248.529 339.253 248.715 335.624 249.811 332.236C250.792 329.196 252.472 326.441 254.707 324.205C262.109 316.823 266.095 306.069 271.981 297.38C274.372 293.868 276.856 290.364 278.436 286.392C280.016 282.42 280.621 277.871 279.148 273.856C277.675 269.84 273.824 266.598 269.654 266.824C267.787 267.023 265.976 267.593 264.323 268.504C258.575 271.302 253.303 275.029 248.707 279.543C246.698 281.527 244.797 283.623 243.014 285.822C234.316 296.482 227.512 309.42 226.914 323.307C226.715 328.067 227.085 333.346 224.138 337.033C216.01 347.219 213.398 361.222 206.466 372.306C203.256 377.417 199.577 382.71 194.089 385.039C193.279 385.439 192.382 385.62 191.484 385.565C189.292 385.309 188.032 382.944 187.107 380.885C183.491 372.854 179.307 365.106 174.588 357.703C172.723 354.783 170.666 351.789 167.684 350.073C165.648 348.913 163.285 348.394 161.371 347.036C158.702 345.145 157.307 341.925 155.919 338.91C151.421 329.171 145.726 320.063 138.973 311.808C135.884 308.033 131.813 304.134 127.044 304.696C122.503 305.244 119.727 310.143 115.443 311.975Z" fill="black"/>
<path d="M114.945 277.09C125.306 277.09 133.706 269.313 133.706 259.72C133.706 250.127 125.306 242.351 114.945 242.351C104.583 242.351 96.1834 250.127 96.1834 259.72C96.1834 269.313 104.583 277.09 114.945 277.09Z" fill="#FBBEBE"/>
<path d="M132.539 263.079C136.269 263.079 139.293 259.977 139.293 256.15C139.293 252.323 136.269 249.221 132.539 249.221C128.808 249.221 125.784 252.323 125.784 256.15C125.784 259.977 128.808 263.079 132.539 263.079Z" fill="#FBBEBE"/>
<path d="M117.407 259.72C131.68 259.72 143.25 256.546 143.25 252.631C143.25 248.715 131.68 245.541 117.407 245.541C103.135 245.541 91.5642 248.715 91.5642 252.631C91.5642 256.546 103.135 259.72 117.407 259.72Z" fill="#FBBEBE"/>
<path d="M94.3614 251.119C94.9901 253.164 95.4847 255.25 95.8418 257.362C93.6719 255.102 91.792 252.568 90.2476 249.82C89.8312 249.346 89.4967 248.803 89.2582 248.214C86.9522 242.708 85.3793 237.138 85.3793 231.107C85.3788 224.114 87.2842 217.261 90.8803 211.32C94.4764 205.38 99.6199 200.59 105.73 197.49C111.84 194.39 118.673 193.105 125.458 193.779C132.243 194.453 138.708 197.06 144.125 201.305C149.542 205.55 153.693 211.264 156.111 217.802C158.529 224.34 159.117 231.441 157.808 238.304C156.5 245.166 153.346 251.516 148.705 256.638C144.064 261.759 138.119 265.446 131.542 267.284C132.66 263.59 134.19 259.983 134.389 256.15C134.509 254.871 134.329 253.582 133.862 252.39C133.238 251.122 132.316 250.033 131.179 249.221C127.108 246.03 121.87 244.636 116.745 244.724C111.615 244.942 106.575 246.182 101.906 248.374C100.432 249.024 98.6673 249.9 96.9236 250.499C96.0922 250.794 95.2338 251.002 94.3614 251.119Z" fill="#FBBEBE"/>
<path d="M187.064 333.171C184.723 337.019 179.719 338.194 175.321 337.851C167.122 337.23 159.663 332.74 153.328 327.337C146.994 321.934 141.457 315.655 134.98 310.457C122.93 300.768 109.358 296.876 94.0269 296.65C97.0232 294.102 95.9201 288.057 96.162 284.085C96.6887 276.053 97.1869 267.81 96.162 259.896C96.0553 259.041 95.9343 258.202 95.7919 257.362C96.0339 257.625 96.2902 257.88 96.5535 258.143C101.113 262.631 106.727 265.832 112.849 267.434C118.972 269.036 125.395 268.985 131.492 267.284C131.1 268.556 130.793 269.854 130.574 271.169C129.692 276.813 131.172 282.537 132.631 288.064C133.499 291.371 134.531 294.92 137.186 296.986C138.909 298.329 141.079 298.855 143.122 299.563C147.194 300.987 150.952 303.22 154.182 306.134C156.431 308.157 158.453 310.515 160.866 312.275C163.16 313.764 165.577 315.044 168.09 316.101C174.255 319.02 180.081 322.642 185.456 326.899C186.47 327.549 187.26 328.509 187.712 329.644C187.845 330.246 187.856 330.87 187.745 331.477C187.633 332.083 187.402 332.66 187.064 333.171Z" fill="#FBBEBE"/>
<path d="M229.106 403.913C228.615 407.242 225.64 409.842 223.541 412.426C217.833 419.494 212.046 426.583 205.662 433.052C198.829 439.967 191.328 446.129 183.833 452.291L174.111 460.271C172.911 461.396 171.506 462.265 169.976 462.827C168.183 463.285 166.289 463.054 164.652 462.177C164 461.857 163.382 461.468 162.809 461.016C160.794 459.41 159.314 457.219 157.869 455.066C151.293 445.219 144.709 435.369 138.119 425.517C135.77 421.998 133.464 418.384 131.172 414.77C130.866 414.303 130.574 413.828 130.268 413.361C128.176 410.075 126.09 406.79 123.948 403.614L112.233 397.984L110.696 397.254L108.881 396.385C106.468 395.224 104.02 394.042 102.012 392.246C100.091 390.392 98.4901 388.217 97.2794 385.813C94.9352 381.367 92.8855 376.764 91.1443 372.036C86.1622 359.134 81.7779 345.685 81.5929 331.798C81.4292 319.583 84.9451 306.879 92.8596 297.913C93.9414 296.68 95.1042 295.523 96.34 294.452C97.8631 293.146 99.436 292.379 101.393 292.664C103.351 292.948 105.208 293.24 107.087 293.569C112.269 294.484 117.41 295.604 122.51 296.928C127.108 298.132 131.87 299.505 136.517 298.548C137.265 298.395 138.005 298.176 138.745 297.979C139.35 297.818 139.948 297.665 140.567 297.563C140.911 297.502 141.258 297.463 141.606 297.446C144.076 297.315 146.446 298.329 148.723 299.33C153.072 301.243 157.549 303.258 160.823 306.777C162.773 308.894 164.204 311.494 166.282 313.487C169.058 316.152 172.759 317.517 176.089 319.423C176.733 319.789 177.353 320.196 177.947 320.642C179.261 321.652 180.455 322.816 181.506 324.11C185.819 329.331 188.381 336.376 193.143 341.567C196.953 345.715 200.265 350.316 203.007 355.272C203.456 356.097 203.89 356.929 204.317 357.776C205.028 359.185 205.69 360.616 206.302 362.062C206.459 362.434 206.616 362.792 206.758 363.179C207.654 365.367 208.435 367.602 209.1 369.874C210.715 375.387 211.79 381.337 215.377 385.762C217.882 388.836 221.356 390.873 224.281 393.523C226.165 395.16 227.647 397.229 228.608 399.561C229.136 400.944 229.308 402.443 229.106 403.913Z" fill="#FBBEBE"/>
<path opacity="0.06" d="M209.292 360.062C208.476 361.118 207.638 362.159 206.779 363.186C206.637 363.376 206.48 363.559 206.324 363.741C198.832 372.732 190.256 380.708 180.801 387.478C174.951 391.669 168.78 395.385 162.623 399.094L151.236 405.935C146.474 408.805 141.649 411.696 136.368 413.346C134.674 413.865 132.902 414.281 131.172 414.77C130.866 414.303 130.574 413.828 130.268 413.361C128.176 410.075 126.09 406.79 123.948 403.614L112.233 397.984C118.703 393.789 124.443 388.513 129.215 382.374C136.332 373.372 141.805 363.106 147.2 352.906C148.157 351.26 148.901 349.493 149.414 347.649C150.125 344.59 149.528 341.378 148.652 338.37C145.448 327.584 138.709 318.265 129.578 311.99C123.172 307.609 115.884 304.944 108.639 302.374C103.578 300.578 98.0339 298.841 92.8881 299.578C93.9681 298.345 95.1311 297.191 96.3684 296.124C97.8915 294.81 99.4645 294.044 101.422 294.328C103.379 294.613 105.237 294.905 107.116 295.241C110.923 296.438 114.667 297.869 118.389 299.344C120.838 300.265 123.217 301.371 125.507 302.652C127.786 304.079 129.975 305.652 132.062 307.361C138.233 312.187 144.731 316.557 151.506 320.438C159.335 324.869 167.556 328.469 175.769 332.12C176.64 332.579 177.602 332.828 178.581 332.85C179.071 332.849 179.547 332.68 179.934 332.371C180.32 332.062 180.595 331.629 180.716 331.141C180.748 330.609 180.63 330.079 180.374 329.615C178.951 326.629 175.719 325.125 172.794 323.672C160.652 317.641 149.976 308.96 139.414 300.345C139.157 300.136 138.932 299.89 138.745 299.614L140.567 299.198C152.387 307.908 164.871 315.628 177.897 322.285C178.585 322.645 179.276 322.995 179.968 323.336C180.467 323.592 180.958 323.84 181.463 324.066C184.972 325.833 188.481 327.717 191.121 330.637C192.824 332.652 194.26 334.888 195.392 337.289C198.301 342.927 200.785 348.785 202.822 354.812C202.861 354.941 202.906 355.067 202.957 355.192C203.216 356.112 203.662 356.966 204.267 357.696C204.48 357.941 204.733 358.146 205.014 358.302C206.352 359.112 208.189 359.025 209.292 360.062Z" fill="black"/>
<path d="M140.595 297.563C152.414 306.272 164.898 313.99 177.926 320.642L179.997 321.701C183.983 323.701 188.132 325.687 191.157 329.002C192.858 331.02 194.294 333.259 195.427 335.661C198.338 341.297 200.82 347.155 202.851 353.184C203.306 354.52 203.84 355.987 205.05 356.674C206.26 357.36 208.181 357.309 209.256 358.346C208.288 359.587 207.306 360.814 206.288 361.996C198.798 370.991 190.222 378.97 180.766 385.74C174.915 389.931 168.744 393.647 162.588 397.356L151.2 404.198C146.439 407.06 141.613 409.951 136.332 411.601C134.346 412.222 132.247 412.689 130.233 413.288C128.14 410.002 126.055 406.717 123.912 403.541L110.66 397.174C117.777 393.041 123.984 387.164 129.165 380.629C136.282 371.634 141.756 361.368 147.15 351.169C148.106 349.521 148.85 347.754 149.364 345.912C150.076 342.852 149.478 339.633 148.602 336.625C145.396 325.874 138.678 316.584 129.578 310.318C123.172 305.937 115.884 303.28 108.639 300.702C103.578 298.913 98.0339 297.169 92.8881 297.913C93.9699 296.68 95.1327 295.523 96.3684 294.452C97.8915 293.146 99.4645 292.379 101.422 292.664C103.379 292.948 105.237 293.24 107.116 293.569C110.923 294.774 114.667 296.205 118.389 297.68C120.839 298.597 123.219 299.703 125.507 300.987C127.786 302.414 129.975 303.987 132.062 305.696C138.243 310.511 144.751 314.869 151.535 318.736C159.364 323.176 167.584 326.804 175.798 330.418C176.668 330.878 177.63 331.128 178.609 331.149C179.1 331.15 179.577 330.983 179.965 330.673C180.352 330.363 180.626 329.929 180.744 329.44C180.776 328.911 180.657 328.383 180.403 327.921C178.979 324.935 175.748 323.424 172.823 321.978C160.68 315.947 150.005 307.259 139.442 298.614C139.184 298.408 138.958 298.162 138.773 297.884L140.595 297.563Z" fill="#FF7A63"/>
<path d="M240.316 337.201C264.99 337.201 284.992 316.683 284.992 291.371C284.992 266.06 264.99 245.541 240.316 245.541C215.643 245.541 195.641 266.06 195.641 291.371C195.641 316.683 215.643 337.201 240.316 337.201Z" fill="#FF7A63"/>
<path d="M284.735 473.771C293.098 471.077 301.589 468.332 308.934 463.404C314.094 459.943 318.542 455.489 323.226 451.371C326.749 448.275 330.421 445.355 333.653 441.938C336.547 438.74 339.257 435.371 341.766 431.847C347.479 424.176 353.379 416.651 359.467 409.272C362.734 405.337 366.186 401.328 370.748 399.138C378.855 395.232 388.37 397.867 396.925 400.547C409.737 404.563 422.484 408.819 434.469 414.93C441.288 418.413 447.893 422.297 454.775 425.634C467.358 431.731 480.718 435.914 494.027 440.076C495.016 440.508 496.114 440.6 497.159 440.339C497.905 439.988 498.546 439.438 499.016 438.747C500.752 436.548 502.142 434.085 503.137 431.446C503.327 431.146 503.398 430.784 503.335 430.432C503.273 430.081 503.083 429.767 502.803 429.555C497.109 423.867 489.721 420.37 482.817 416.318C477.323 413.098 472.063 409.484 466.81 405.87C461.764 402.402 456.675 398.897 452.441 394.436C450.305 392.18 448.384 389.69 446.071 387.631C444.027 385.916 441.862 384.359 439.594 382.973C429.448 376.327 419.764 368.966 410.612 360.945C403.651 354.841 397.95 346.978 390.513 341.502C385.951 338.143 380.641 335.084 375.061 335.697C368.271 336.427 363.261 342.268 358.528 347.306C342.62 364.252 322.55 376.38 304.799 391.282C290.308 403.431 276.764 417.866 259.113 424.276C259.903 426.963 260.181 429.65 260.978 432.307C261.971 436.002 263.21 439.622 264.686 443.143C266.149 446.26 267.796 449.284 269.618 452.196L276.693 464.046C278.116 466.455 279.604 468.901 281.639 470.814C282.707 471.866 284.735 472.245 284.735 473.771Z" fill="#37392E"/>
<path opacity="0.06" d="M284.735 473.771C293.098 471.077 301.589 468.332 308.934 463.404C314.094 459.943 318.542 455.489 323.226 451.371C326.749 448.275 330.421 445.355 333.653 441.938C336.547 438.74 339.257 435.371 341.766 431.847C347.479 424.176 353.379 416.651 359.467 409.272C362.734 405.337 366.186 401.328 370.748 399.138C378.855 395.232 388.37 397.867 396.925 400.547C409.737 404.563 422.484 408.819 434.469 414.93C441.288 418.413 447.893 422.297 454.775 425.634C467.358 431.731 480.718 435.914 494.027 440.076C495.016 440.508 496.114 440.6 497.159 440.339C497.905 439.988 498.546 439.438 499.016 438.747C500.752 436.548 502.142 434.085 503.137 431.446C503.327 431.146 503.398 430.784 503.335 430.432C503.273 430.081 503.083 429.767 502.803 429.555C497.109 423.867 489.721 420.37 482.817 416.318C477.323 413.098 472.063 409.484 466.81 405.87C461.764 402.402 456.675 398.897 452.441 394.436C450.305 392.18 448.384 389.69 446.071 387.631C444.027 385.916 441.862 384.359 439.594 382.973C429.448 376.327 419.764 368.966 410.612 360.945C403.651 354.841 397.95 346.978 390.513 341.502C385.951 338.143 380.641 335.084 375.061 335.697C368.271 336.427 363.261 342.268 358.528 347.306C342.62 364.252 322.55 376.38 304.799 391.282C290.308 403.431 276.764 417.866 259.113 424.276C259.903 426.963 260.181 429.65 260.978 432.307C261.971 436.002 263.21 439.622 264.686 443.143C266.149 446.26 267.796 449.284 269.618 452.196L276.693 464.046C278.116 466.455 279.604 468.901 281.639 470.814C282.707 471.866 284.735 472.245 284.735 473.771Z" fill="black"/>
<path d="M479.579 459.862C480.373 461.013 480.912 462.329 481.158 463.716C481.404 465.104 481.351 466.53 481.002 467.894C483.532 469.769 486.611 470.7 489.728 470.53C492.832 470.354 495.883 469.638 498.753 468.412C501.239 467.479 503.594 466.212 505.756 464.645C509.479 461.826 512.162 457.796 514.333 453.613C515.536 451.313 516.56 448.326 515.009 446.253C514.416 445.546 513.69 444.969 512.874 444.559C507.401 441.352 501.703 438.568 495.828 436.228C494.21 435.466 492.455 435.06 490.675 435.038C488.483 435.162 486.497 436.396 484.76 437.769C480.86 440.883 477.715 444.882 475.572 449.451C474.903 450.911 472.881 454.386 473.878 455.891C474.333 456.584 476.013 456.825 476.725 457.256C477.843 457.91 478.816 458.798 479.579 459.862Z" fill="#FBBEBE"/>
<path d="M512.169 442.588C524.212 444.888 535.286 450.853 547.122 454.073C551.912 455.372 556.844 456.263 561.421 458.176C565.997 460.089 570.31 463.36 572.282 468.018C573.115 470.254 573.667 472.59 573.926 474.969C574.438 478.335 574.858 482.095 572.908 484.855C570.851 487.775 566.965 488.425 563.485 488.848C550.973 490.382 538.46 491.908 525.905 492.988C523.368 493.151 520.843 493.46 518.34 493.916C516.276 494.346 514.262 494.982 512.212 495.478C509.564 496.121 506.86 496.515 504.169 496.938C497.287 497.946 490.326 498.968 483.415 498.187C480.262 497.829 476.732 496.785 475.344 493.864C474.768 492.351 474.525 490.725 474.632 489.104C474.632 484.774 474.561 480.437 474.632 476.108C474.696 471.661 474.91 467.047 476.874 463.082C477.363 461.87 478.281 460.892 479.444 460.344C480.16 460.134 480.909 460.064 481.65 460.14C485.351 460.271 489.18 460.432 492.49 462.126C495.116 463.462 497.009 459.468 499.685 460.666C504.76 462.965 501.322 455.993 506.447 458.161C507.642 454.379 512.724 456.628 511.842 452.751C510.959 448.874 514.126 450.561 513.763 446.574C513.748 445.705 513.584 444.845 513.279 444.033C512.881 443.252 513.009 442.464 512.169 442.588Z" fill="#464353"/>
<path opacity="0.06" d="M151.435 208.984C148.674 210.634 145.25 210.327 142.033 210.254C139.22 210.195 136.406 210.344 133.613 210.7C132.608 210.772 131.625 211.039 130.717 211.488C129.534 212.271 128.599 213.39 128.026 214.708C126.887 216.952 126.12 219.375 125.756 221.878C125.357 224.689 125.4 227.763 123.692 229.99C121.364 233.02 117.735 232.552 114.439 233.151C111.571 233.716 108.823 234.793 106.318 236.334C103.849 237.864 101.731 239.922 100.107 242.367C98.4831 244.813 97.3925 247.589 96.9094 250.506C96.8168 251.171 96.7528 251.828 96.7243 252.492C96.6531 254.376 96.8382 256.296 96.5962 258.143C96.5376 258.604 96.4472 259.061 96.3257 259.509C96.2942 259.64 96.2538 259.77 96.2047 259.896C96.098 259.041 95.977 258.202 95.8346 257.362C93.6648 255.102 91.7849 252.568 90.2404 249.82C89.8241 249.346 89.4895 248.803 89.2511 248.214C86.9451 242.708 85.3722 237.138 85.3722 231.107C85.3717 223.198 87.8093 215.491 92.3364 209.089C96.8634 202.688 103.248 197.918 110.577 195.464C117.906 193.009 125.804 192.995 133.141 195.423C140.478 197.852 146.879 202.598 151.428 208.984H151.435Z" fill="black"/>
<path d="M153.777 194.615C151.948 190.271 148.083 187.19 144.111 184.773C136.282 179.983 127.272 176.975 118.133 176.851C113.522 176.852 108.924 177.342 104.411 178.311C100.013 179.118 95.7049 180.373 91.55 182.057C84.6944 184.982 78.6344 189.572 73.892 195.433C72.8957 195.51 71.9077 195.674 70.9383 195.922C67.0665 196.915 63.579 199.098 60.3975 201.573C57.7352 203.551 55.3707 205.921 53.3799 208.604C51.0499 212.032 49.4383 215.917 48.6468 220.016C45.9352 232.837 49.2732 246.067 51.7215 258.939C54.1699 271.811 55.6005 285.873 49.5863 297.439C47.3159 301.819 44.0918 305.543 41.6719 309.807C39.252 314.071 37.6435 319.204 39.0171 323.935C40.6541 329.688 46.1629 333.339 49.0383 338.516C50.7993 341.902 51.4278 345.788 50.8274 349.576C50.2269 353.364 48.4306 356.845 45.7145 359.485C50.234 361.091 55.2659 359.361 59.3371 356.791C62.5649 354.863 65.3111 352.19 67.3583 348.986C72.4756 340.487 70.2052 329.513 71.9845 319.693C74.3546 306.843 83.9203 295.38 82.6036 282.369C81.7139 273.607 76.077 266.343 71.6429 258.83C68.6852 253.819 66.1995 248.531 64.2195 243.037C62.7961 239.116 61.6431 234.903 62.3477 230.785C62.5808 229.528 62.9558 228.303 63.4651 227.135C63.4651 227.274 63.4651 227.412 63.4651 227.551C63.5462 231.333 64.3743 235.059 65.8992 238.503C71.1945 249.601 85.2939 253.69 91.2653 264.415C93.0091 262.466 94.824 260.421 95.5357 257.88C96.162 255.617 95.8418 253.208 95.9343 250.857C96.1834 244.285 100.077 238.094 105.528 234.706C108.031 233.162 110.78 232.087 113.649 231.53C116.937 230.924 120.567 231.384 122.902 228.354C124.61 226.164 124.567 223.053 124.973 220.25C125.334 217.744 126.101 215.318 127.243 213.073C127.814 211.755 128.75 210.638 129.934 209.86C130.843 209.407 131.829 209.14 132.838 209.072C135.628 208.715 138.439 208.566 141.25 208.626C144.503 208.706 147.983 209.006 150.773 207.29C154.702 204.837 155.606 198.996 153.777 194.615Z" fill="#464353"/>
<path opacity="0.06" d="M551.499 154.312C551.499 154.414 551.499 154.509 551.499 154.611C550.211 166.001 539.535 165.476 537.044 183.422C536.062 190.453 525.656 191.753 518.817 193.644C515.863 192.622 512.874 191.738 509.92 190.636C503.087 188.102 507.863 184.298 510.788 180.21C520.361 166.819 522.176 148.522 533.044 136.22C537.03 143.988 543.335 150.244 551.037 154.071C551.186 154.173 551.343 154.246 551.499 154.312Z" fill="black"/>
<path d="M551.748 147.777C551.747 149.505 551.652 151.23 551.464 152.947C550.153 164.801 544.387 175.664 535.392 183.227C526.397 190.79 514.882 194.456 503.294 193.447C491.705 192.438 480.957 186.832 473.334 177.822C465.711 168.812 461.813 157.108 462.469 145.196C463.125 133.284 468.283 122.105 476.847 114.033C485.411 105.961 496.706 101.633 508.332 101.969C519.957 102.305 530.997 107.279 539.104 115.833C547.211 124.387 551.747 135.847 551.748 147.777Z" fill="#A1616A"/>
<path d="M569.72 152.903C574.837 152.647 579.755 154.706 584.481 156.729C603.221 164.76 622.117 172.857 638.864 184.649C647.12 190.49 654.772 197.119 662.408 203.771L693.789 231.121C699.817 236.371 705.888 241.672 710.728 248.097C713.577 252.06 716.175 256.205 718.507 260.509L723.162 268.65C725.069 271.836 726.734 275.168 728.144 278.616C730.535 284.902 731.425 292.233 736.251 296.825C739.489 299.914 743.952 301.17 747.909 303.207C751.866 305.244 755.738 308.821 755.674 313.363C755.674 316.283 753.951 318.912 752.656 321.54C749.973 327.033 748.848 333.188 749.411 339.304L698.095 299.074C696.052 297.475 693.917 295.825 691.404 295.285C688.145 294.555 684.821 295.818 681.675 296.957C656.875 305.929 630.52 309.483 604.303 307.39C592.709 306.456 580.937 304.316 570.787 298.497C565.172 295.285 560.204 291.028 555.271 286.815C549.115 281.529 542.937 276.229 537.478 270.183C536.055 268.569 534.574 266.795 534.211 264.634C533.941 263.072 534.275 261.48 534.404 259.903C535.3 248.827 526.332 239.605 523.599 228.851C522.385 223.78 522.553 218.463 524.086 213.484C525.619 208.504 528.457 204.053 532.29 200.617C538.403 206.107 538.183 215.752 537.471 224.054C536.51 235.232 539.556 240.774 538.596 251.959C542.467 251.813 541.763 254.369 543.414 250.769C545.065 247.17 545.386 243.11 545.699 239.145C546.842 224.806 548.23 210.49 549.862 196.199C550.674 189.051 551.599 181.918 552.489 174.778C553.03 170.433 552.958 166.374 555.193 162.519C558.296 157.181 563.57 153.202 569.72 152.903Z" fill="#FF7A63"/>
<path d="M576.417 165.928C579.677 164.877 583.186 165.841 586.46 166.841C592.248 168.603 598.004 170.465 603.726 172.427C608.402 174.025 613.142 175.741 617.1 178.757C621.206 181.882 624.217 186.226 627.199 190.497C629.334 193.571 631.469 196.681 632.893 200.171C634.743 204.742 635.242 209.751 635.74 214.672C636.067 216.795 636.04 218.96 635.662 221.075C634.993 223.371 633.817 225.477 632.224 227.23C629.774 230.205 626.933 232.817 623.783 234.991C615.406 240.774 605.278 243.183 595.413 245.308C586.609 247.199 577.741 248.958 568.759 249.528C565.264 249.754 561.207 249.528 559.072 246.695C558.464 245.812 557.985 244.843 557.649 243.818C552.4 229.559 550.129 214.329 550.98 199.113C551.057 196.339 551.475 193.587 552.225 190.921C552.964 188.787 553.881 186.723 554.965 184.751C557.663 179.516 560.503 174.099 565.15 170.594C570.011 166.943 576.31 165.79 582.339 166.023" fill="#A1616A"/>
<path opacity="0.06" d="M609.207 220.075C606.409 222.009 605.434 225.748 605.078 229.194C603.562 243.847 609.456 258.355 609.064 273.082C608.751 284.764 604.495 295.978 600.296 306.879C593.136 325.475 589.406 345.671 587.961 365.611C586.516 385.55 584.403 406.315 573.969 423.181C571.599 426.999 568.837 430.548 566.517 434.388C564.083 438.404 562.154 442.712 560.005 446.888C553.672 459.222 545.508 470.472 535.806 480.233C532.959 483.08 529.941 485.84 526.311 487.483C523.972 488.524 521.453 489.075 518.904 489.102C516.354 489.13 513.825 488.634 511.464 487.644C506.596 485.577 502.497 480.919 502.297 475.516C502.119 470.683 504.931 466.324 507.749 462.454C517.302 449.344 528.287 437.399 540.489 426.853C542.702 424.941 545.037 422.962 546.183 420.231C547.471 417.084 546.944 413.514 547.108 410.104C547.371 404.665 549.435 399.503 550.667 394.202C555.649 372.671 546.795 349.161 553.998 328.301C555.599 323.665 557.976 319.233 558.538 314.348C558.937 310.931 558.104 307.113 556.026 304.55C554.074 302.246 552.979 299.308 552.937 296.256C552.937 295.628 552.937 295.007 553.015 294.394C553.884 284.837 554.745 275.236 554.275 265.649C553.805 256.062 551.948 246.425 547.635 237.904C545.4 233.487 542.51 229.354 541.129 224.587C538.909 216.869 540.959 208.524 544.268 201.223C546.852 195.513 550.297 190.074 555.108 186.16C564.047 178.895 577.428 178.056 587.214 184.065C594.431 188.489 599.37 195.929 603.377 203.515C606.253 209.057 609.285 213.752 609.207 220.075Z" fill="black"/>
<path d="M610.829 220.075C608.032 222.009 607.057 225.748 606.701 229.194C605.185 243.847 611.078 258.355 610.687 273.082C610.374 284.764 606.118 295.978 601.918 306.879C594.758 325.475 591.036 345.671 589.584 365.611C588.132 385.55 586.025 406.315 575.591 423.181C573.221 426.999 570.467 430.548 568.14 434.388C565.713 438.404 563.777 442.712 561.627 446.888C555.292 459.221 547.129 470.47 537.428 480.233C534.581 483.08 531.557 485.84 527.927 487.483C525.588 488.524 523.069 489.075 520.519 489.102C517.97 489.13 515.44 488.634 513.08 487.644C508.219 485.577 504.119 480.919 503.92 475.516C503.735 470.683 506.546 466.324 509.372 462.454C518.924 449.344 529.909 437.399 542.112 426.853C544.325 424.941 546.667 422.962 547.805 420.231C549.101 417.084 548.567 413.514 548.731 410.104C548.994 404.665 551.058 399.503 552.289 394.202C557.272 372.671 548.418 349.161 555.62 328.301C557.222 323.665 559.606 319.233 560.168 314.348C560.56 310.931 559.734 307.113 557.656 304.55C555.667 302.262 554.541 299.32 554.482 296.256C554.482 295.628 554.482 295.007 554.56 294.394C555.421 284.837 556.282 275.236 555.812 265.649C555.343 256.062 553.485 246.425 549.172 237.904C546.937 233.487 544.048 229.354 542.667 224.587C540.446 216.869 542.496 208.524 545.806 201.223C548.396 195.513 551.834 190.074 556.645 186.16C565.585 178.895 578.965 178.056 588.751 184.065C595.968 188.489 600.908 195.929 604.915 203.515C607.861 209.057 610.879 213.752 610.829 220.075Z" fill="#A1616A"/>
<path d="M682.807 410.732L682.195 410.922L682.807 410.732Z" fill="#464353"/>
<path d="M558.147 443.31C558.173 443.064 558.216 442.82 558.275 442.58L558.147 443.31Z" fill="#464353"/>
<path d="M710.742 393.209C712.792 390.778 715.952 389.69 718.991 388.88C723.888 387.581 728.891 386.745 733.937 386.383C737.07 386.037 740.237 386.237 743.304 386.974C746.336 387.828 749.211 389.683 750.749 392.494C752.108 394.976 752.321 397.926 752.499 400.766C752.869 406.607 753.211 412.448 752.272 418.201C751.667 421.852 750.535 425.386 749.802 429.007C747.425 440.879 749.489 453.167 749.275 465.287C749.225 467.872 749.062 470.522 748.001 472.866C746.87 475.356 744.834 477.247 742.848 479.116C740.663 481.138 738.443 483.175 735.809 484.526C731.909 486.534 727.418 486.87 723.055 487.008C720.4 487.089 717.667 487.096 715.226 486.096C712.785 485.096 710.586 482.847 710.408 480.123C710.123 475.502 715.205 472.479 716.657 468.098C717.81 464.608 716.486 460.753 714.65 457.577C711.705 452.514 707.502 448.344 702.472 445.494C700.607 444.442 698.621 443.559 697.07 442.077C695.518 440.594 694.465 438.294 695.127 436.236C695.917 433.746 698.742 432.585 701.283 432.337C703.824 432.088 706.507 432.278 708.792 431.117C710.828 430.088 712.244 428.102 713.219 426.006C715.294 421.534 715.583 416.406 714.023 411.718C713.406 409.935 712.512 408.266 711.376 406.775C710.308 405.373 708.116 404.19 707.354 402.657C706.002 399.897 708.927 395.4 710.742 393.209Z" fill="#FF7A63"/>
<path opacity="0.06" d="M669.383 287.399C657.626 276.74 641.234 273.841 625.861 270.607C617.942 268.947 610.061 267.097 602.217 265.058C597.064 263.714 591.897 262.283 586.559 261.911C581.221 261.538 575.727 262.305 571.157 265.094C566.588 267.883 563.143 272.936 563.115 278.39C563.115 280.58 563.62 282.727 563.464 284.895C563.214 288.385 561.328 291.466 560.04 294.73C558.07 299.889 557.768 305.561 559.179 310.909C561.456 319.43 568.019 326.936 567.449 335.734C566.503 350.46 566.794 365.851 569.741 380.271C572.688 394.691 576.367 409.177 576.282 423.933C576.196 438.689 571.841 454.204 561.101 464.031C568.377 471.04 577.277 476.029 586.958 478.524C595.235 480.649 605.078 480.437 610.972 474.107C612.338 472.647 613.47 470.697 613.185 468.69C612.891 467.423 612.373 466.222 611.655 465.149C607.605 457.709 608.096 448.538 609.89 440.229C611.683 431.921 614.751 423.845 615.527 415.361C616.096 409.206 615.456 402.949 616.601 396.874C617.484 392.224 619.391 387.843 620.537 383.25C623.918 369.626 620.366 355.323 616.836 341.75C619.79 348.723 625.377 354.162 631.156 358.893C639.925 366.063 650.53 372.393 661.675 371.123C671.597 369.984 680.045 362.909 685.874 354.607C685.924 345.006 689.17 335.931 688.593 326.352C688.221 322.144 687.488 317.978 686.401 313.903C685.312 309.347 684.195 304.747 682.13 300.564C679.405 295.007 673.924 291.51 669.383 287.399Z" fill="black"/>
<path d="M671.817 287.399C660.06 276.74 643.676 273.841 628.295 270.607C620.376 268.947 612.497 267.097 604.659 265.058C599.506 263.714 594.331 262.283 589 261.911C583.67 261.538 578.175 262.305 573.606 265.094C569.036 267.883 565.584 272.936 565.563 278.39C565.563 280.58 566.061 282.727 565.905 284.895C565.663 288.385 563.734 291.466 562.481 294.73C560.513 299.89 560.214 305.562 561.627 310.909C563.898 319.43 570.46 326.936 569.898 335.734C568.944 350.46 569.236 365.851 572.182 380.271C575.129 394.691 578.808 409.177 578.723 423.933C578.638 438.689 574.253 454.153 563.506 463.966C570.784 470.973 579.683 475.961 589.363 478.459C597.641 480.583 607.491 480.372 613.377 474.041C614.744 472.581 615.875 470.632 615.591 468.624C615.297 467.357 614.778 466.157 614.061 465.083C610.011 457.643 610.502 448.472 612.295 440.164C614.089 431.855 617.157 423.78 617.939 415.296C618.502 409.141 617.861 402.883 619.014 396.809C619.89 392.158 621.804 387.777 622.943 383.185C626.324 369.56 622.779 355.257 619.242 341.684C622.196 348.657 627.783 354.096 633.569 358.828C642.338 365.997 652.935 372.328 664.081 371.057C674.003 369.918 682.451 362.843 688.28 354.542C688.323 344.941 691.568 335.865 690.992 326.286C690.62 322.078 689.886 317.912 688.799 313.837C687.718 309.281 686.593 304.681 684.529 300.498C681.881 295.007 676.358 291.51 671.817 287.399Z" fill="#A1616A"/>
<path d="M590.139 471.647C584.918 468.384 580.409 464.052 576.894 458.921C575.627 457.081 574.488 455.124 572.908 453.561C571.328 451.999 569.186 450.838 567.001 451.072C564.531 451.335 562.553 453.262 560.987 455.248C556.788 460.585 554.083 467.113 549.421 472.041C544.04 477.743 536.532 480.802 529.037 482.759C521.543 484.716 513.806 485.745 506.461 488.221C504.155 488.994 501.728 490.046 500.482 492.185C498.902 494.908 499.771 498.479 501.436 501.18C504.504 506.291 509.785 509.584 515.294 511.541C520.802 513.497 526.631 514.279 532.375 515.432C542.524 517.469 552.923 520.733 563.022 518.433C567.051 517.513 570.851 515.732 574.922 514.958C584.175 513.191 593.719 516.761 603.007 515.33C607.498 514.636 611.74 512.797 615.818 510.723C617.864 509.816 619.723 508.52 621.299 506.904C622.786 505.211 623.683 502.808 623.071 500.618C622.722 499.355 621.918 498.289 621.384 497.099C620.544 495.259 620.374 493.193 620.174 491.17C619.406 483.472 618.103 475.84 616.274 468.332C615.641 465.711 614.694 462.79 612.31 461.644C611.824 461.375 611.255 461.309 610.723 461.461C609.876 461.79 609.598 462.841 609.342 463.725C608.643 466.167 607.305 468.367 605.474 470.084C603.642 471.802 601.387 472.972 598.953 473.467C596.519 473.962 593.999 473.763 591.667 472.893C589.336 472.022 587.281 470.513 585.727 468.529" fill="#FF7A63"/>
<path opacity="0.06" d="M551.748 147.777C551.747 149.505 551.652 151.23 551.464 152.947C549.221 153.291 546.93 153.088 544.778 152.354C542.627 151.619 540.674 150.374 539.08 148.719C537.578 147.084 536.453 145.105 534.966 143.455C533.478 141.805 531.407 140.432 529.272 140.608C527.45 140.746 525.87 141.929 524.624 143.302C523.004 145.089 521.816 147.242 521.158 149.588C520.681 151.246 520.446 153.129 519.108 154.232C517.77 155.334 516.126 155.261 514.539 155.203C512.482 155.13 510.347 155.028 508.532 154.035C505.116 152.144 503.963 147.814 502.696 144.047C500.561 137.716 495.757 125.742 488.29 124.465C484.732 123.859 480.404 125.786 477.614 127.867C473.408 130.999 470.305 133.029 464.867 132.941C468.296 122.678 475.161 113.995 484.244 108.436C493.326 102.878 504.036 100.804 514.468 102.584C524.901 104.364 534.38 109.882 541.219 118.157C548.058 126.433 551.814 136.928 551.82 147.777H551.748Z" fill="black"/>
<path d="M464.803 131.269C463.52 131.298 462.243 131.09 461.031 130.656C457.579 129.269 455.9 125.18 455.608 121.391C455.152 115.615 457.031 109.95 458.917 104.481C459.316 103.291 459.793 102.013 460.832 101.349C461.673 100.925 462.593 100.689 463.529 100.655C468.64 99.925 473.074 96.7198 476.846 93.1275C480.618 89.5353 484.02 85.4612 488.234 82.4677C499.408 74.5604 515.991 76.0353 525.656 85.7898C529.485 89.6448 532.774 94.8725 538.083 95.7779C541.144 96.2963 544.425 95.2157 547.336 96.3839C549.471 97.2382 550.994 99.173 552.218 101.152C556.19 107.548 558.054 115.126 558.674 122.683C559.293 130.24 558.723 137.84 558.147 145.397C558.179 146.529 557.895 147.646 557.328 148.617C556.873 149.177 556.302 149.626 555.656 149.931C552.95 151.3 549.892 151.76 546.917 151.246C543.942 150.732 541.2 149.271 539.08 147.069C537.571 145.441 536.453 143.462 534.966 141.805C533.478 140.148 531.407 138.79 529.272 138.965C527.457 139.104 525.863 140.286 524.624 141.659C523.004 143.446 521.816 145.6 521.158 147.945C520.688 149.603 520.446 151.486 519.108 152.582C517.77 153.677 516.126 153.618 514.532 153.56C512.482 153.48 510.347 153.385 508.532 152.385C505.109 150.501 503.956 146.171 502.696 142.404C500.561 136.074 495.764 124.092 488.29 122.822C484.732 122.208 480.404 124.143 477.614 126.224C473.344 129.334 470.269 131.364 464.803 131.269Z" fill="#464353"/>
<path opacity="0.06" d="M229.106 403.913C228.615 407.242 225.64 409.842 223.541 412.426C217.833 419.494 212.046 426.583 205.662 433.052C198.829 439.967 191.328 446.129 183.833 452.291L174.111 460.271C172.911 461.396 171.506 462.265 169.976 462.827C168.183 463.285 166.289 463.054 164.652 462.177C164.794 461.885 164.944 461.615 165.107 461.345L176.766 441.303C179.057 437.375 180.559 433.797 183.171 430.11C187.107 424.59 191.079 419.041 195.925 414.361C202.053 408.44 209.911 404.139 217.199 399.861C218.252 396.619 222.665 395.721 225.647 397.254C226.753 397.842 227.748 398.625 228.587 399.569C229.121 400.947 229.3 402.443 229.106 403.913Z" fill="black"/>
<path d="M177.577 442.128L165.919 462.177C165.442 462.987 164.951 463.907 165.157 464.827C165.419 465.599 165.919 466.263 166.581 466.718C171.05 470.449 176.004 474.385 177.406 480.116C178.41 484.205 177.406 488.586 178.303 492.689C179.947 500.092 187.2 504.59 194.061 507.437C209.434 513.819 226.501 516.272 242.836 513.279C259.17 510.285 274.671 501.757 285.248 488.644C288.493 484.614 291.269 480.204 294.351 476.042C302.892 464.543 313.731 455.102 324.485 445.756C338.329 433.724 346.485 415.777 358.649 401.949C360.862 399.43 363.303 396.838 366.478 396.006C368.257 395.546 370.748 396.225 370.819 398.108C370.983 401.759 373.844 404.745 375.801 407.797C383.175 419.362 390.89 431.285 402.285 438.66C408.52 442.705 415.587 445.18 422.633 447.421C440.498 453.131 458.711 457.643 476.903 462.111C477.821 460.228 478.923 458.445 480.191 456.789C482.077 454.416 484.561 452.605 486.454 450.218C489.92 445.917 491.137 440.229 492.248 434.768C481.38 427.941 470.227 420.896 459.508 413.799C454.113 410.236 448.683 406.592 444.313 401.774C441.466 398.605 439.074 394.976 436.22 391.786C433.301 388.689 430.155 385.826 426.811 383.221L401.189 362.172C393.829 356.133 386.328 349.759 379.125 343.51C375.075 339.99 370.584 336.289 365.289 336.121C360.755 335.975 356.585 338.464 352.684 340.859C329.776 354.931 306.526 368.37 282.935 381.177C278.159 383.761 273.362 386.332 268.807 389.303C259.944 395.087 252.075 402.335 245.519 410.754C244.316 412.295 242.793 414.047 240.886 413.813C240.361 413.734 239.856 413.553 239.398 413.28C236.459 411.667 234.658 408.549 232.992 405.592C231.327 402.635 229.469 399.525 226.487 397.992C223.505 396.458 219.099 397.356 218.039 400.605C210.715 405.008 202.886 409.272 196.751 415.193C191.904 419.873 187.933 425.415 183.997 430.942C181.37 434.629 179.862 438.207 177.577 442.128Z" fill="#37392E"/>
<path opacity="0.06" d="M158.481 319.846C158.481 319.846 170.203 325.183 178.609 331.207L158.481 319.846Z" fill="black"/>
<path d="M745.56 330.82C745.774 337.632 745.944 344.459 745.866 351.263C745.823 354.87 745.674 358.63 743.987 361.792C742.784 364.063 740.884 365.837 739.005 367.575L727.283 378.475C723.646 381.856 719.724 385.382 714.877 386.222C709.333 387.186 703.917 384.419 698.586 382.571C693.217 380.716 687.596 379.747 681.931 379.702C678.686 379.702 675.412 379.965 672.209 379.439C669.893 378.987 667.621 378.325 665.419 377.46L654.836 373.693C655.134 370.955 657.682 369.21 659.818 367.48C667.398 361.171 670.721 351.03 673.113 341.326C675.057 333.751 676.441 326.036 677.255 318.247C677.618 314.392 677.782 310.471 676.992 306.682C676.247 303.625 675.197 300.655 673.86 297.818L670.138 289.21C668.003 284.347 663.732 282.186 659.384 279.317C665.946 281.872 673.946 282.873 678.935 287.94C679.897 289.062 681.038 290.01 682.308 290.743C683.668 291.408 685.212 291.474 686.7 291.722C694.109 292.861 700.408 297.636 706.529 302.053C714.021 307.466 721.722 312.55 729.631 317.305C733.19 319.452 736.863 321.562 739.859 324.49C742.855 327.418 745.204 331.316 745.396 335.558" fill="#37392E"/>
<path opacity="0.06" d="M107.308 318.861C97.9769 320.752 93.1229 332.003 93.671 341.735C94.1976 350.428 97.6781 358.657 103.507 364.99C107.4 369.188 112.254 372.43 115.77 376.964C120.966 383.652 122.774 392.494 127.421 399.598C130.795 404.753 135.528 408.797 140.232 412.674C151.079 421.553 162.28 429.956 173.833 437.886C178.531 441.106 183.669 444.362 189.321 444.238C194.644 444.121 199.548 440.916 203.021 436.769C206.495 432.621 208.715 427.584 210.971 422.619C219.099 404.439 227.284 386.061 231.17 366.465C232.387 360.31 233.206 353.965 235.925 348.336C238.06 343.955 241.22 340.202 244.038 336.245C250.697 326.854 255.371 316.141 257.761 304.791C259.312 297.388 259.832 289.458 257.284 282.376C254.736 275.294 248.551 269.154 241.184 268.599C235.355 268.161 229.633 271.227 225.719 275.688C221.804 280.149 219.498 285.852 217.925 291.627C215.67 299.935 214.804 308.576 215.363 317.181C215.818 324.125 217.199 331.134 216.032 337.997C215.206 342.838 213.149 347.357 211.114 351.811C205.854 363.303 200.509 374.941 192.559 384.667C189.968 387.836 186.402 391.041 182.438 390.296C176.958 389.274 175.506 382.155 172.801 377.154C169.485 371.021 163.193 367.334 158.261 362.464C151.243 355.527 147.037 346.226 142.047 337.639C137.058 329.053 130.603 320.576 121.407 317.283C112.212 313.991 99.9556 318.218 97.5926 327.914" fill="black"/>
<path opacity="0.06" d="M114.347 325.527C105.009 327.418 93.1229 328.652 93.7066 338.399C94.2272 347.093 97.7086 355.324 103.543 361.653C107.436 365.859 112.29 369.101 115.806 373.635C121.001 380.323 122.809 389.157 127.457 396.268C130.83 401.43 135.563 405.475 140.268 409.345C151.115 418.228 162.315 426.632 173.869 434.556C178.566 437.783 183.705 441.04 189.356 440.916C194.68 440.799 199.584 437.586 203.057 433.446C206.53 429.307 208.751 424.261 211.007 419.289C219.135 401.109 227.32 382.732 231.206 363.135C232.423 356.988 233.241 350.636 235.96 345.014C238.095 340.633 241.256 336.88 244.074 332.915C250.734 323.528 255.408 312.817 257.796 301.469C259.348 294.058 259.867 286.136 257.319 279.047C254.771 271.957 248.586 265.831 241.22 265.269C235.391 264.831 229.669 267.905 225.754 272.359C221.84 276.813 219.534 282.522 217.961 288.305C215.705 296.613 214.839 305.254 215.398 313.859C215.854 320.81 217.235 327.819 216.067 334.675C215.242 339.523 213.185 344.043 211.149 348.496C205.89 359.989 200.545 371.619 192.595 381.352C190.004 384.521 186.438 387.719 182.474 386.981C176.993 385.952 175.541 378.833 172.837 373.839C169.52 367.706 163.228 364.019 158.296 359.149C151.279 352.22 147.072 342.911 142.083 334.325C137.094 325.738 130.638 317.269 121.443 313.969C112.247 310.669 123.763 331.806 121.393 341.502" fill="black"/>
<path d="M107.308 317.189C97.9769 319.08 93.1229 330.331 93.671 340.063C94.196 348.759 97.6766 356.99 103.507 363.325C107.4 367.523 112.254 370.765 115.77 375.299C120.966 381.987 122.774 390.829 127.421 397.933C130.795 403.095 135.528 407.14 140.232 411.017C151.079 419.895 162.28 428.297 173.833 436.221C178.531 439.448 183.669 442.704 189.321 442.58C194.644 442.464 199.548 439.258 203.021 435.111C206.495 430.964 208.715 425.926 210.971 420.961C219.099 402.781 227.284 384.404 231.17 364.8C232.387 358.652 233.206 352.3 235.925 346.678C238.06 342.298 241.22 338.545 244.038 334.58C250.698 325.193 255.372 314.482 257.761 303.134C259.312 295.723 259.832 287.801 257.284 280.711C254.736 273.622 248.551 267.496 241.184 266.941C235.355 266.496 229.633 269.57 225.719 274.031C221.804 278.492 219.498 284.194 217.925 289.969C215.67 298.278 214.804 306.918 215.363 315.524C215.818 322.467 217.199 329.477 216.032 336.332C215.206 341.18 213.149 345.7 211.114 350.154C205.854 361.646 200.509 373.284 192.559 383.009C189.968 386.178 186.402 389.376 182.438 388.639C176.958 387.609 175.506 380.498 172.801 375.496C169.485 369.356 163.193 365.669 158.261 360.806C151.243 353.87 147.037 344.568 142.047 335.982C137.058 327.396 130.603 318.926 121.407 315.633C112.212 312.341 99.9556 316.568 97.5926 326.264" fill="#FBBEBE"/>
<g opacity="0.06">
<path opacity="0.06" d="M71.6429 258.866C68.6852 253.856 66.1995 248.568 64.2195 243.073L63.9775 242.343C62.4756 240.689 61.2125 238.823 60.2267 236.802C58.7008 233.358 57.8727 229.632 57.7926 225.85C57.7926 225.711 57.7926 225.572 57.7926 225.434C57.2833 226.602 56.9083 227.827 56.6752 229.084C55.9634 233.202 57.1378 237.408 58.547 241.336C60.5284 246.829 63.0141 252.117 65.9704 257.128C70.3902 264.707 76.0343 272.008 76.9097 280.704C78.2264 293.715 68.6607 305.171 66.2978 318.028C64.49 327.848 66.7818 338.822 61.6644 347.321C59.619 350.525 56.8723 353.195 53.6432 355.119C51.6179 356.443 49.4005 357.428 47.0739 358.039C46.6496 358.556 46.1932 359.043 45.7074 359.499C50.2269 361.106 55.2588 359.375 59.3299 356.805C62.5578 354.877 65.3039 352.205 67.3512 349C72.4685 340.501 70.1981 329.528 71.9774 319.707C74.3475 306.857 83.9132 295.394 82.5964 282.383C81.7139 273.637 76.077 266.343 71.6429 258.866Z" fill="black"/>
<path opacity="0.06" d="M153.777 194.615C151.948 190.271 148.083 187.19 144.111 184.773C139.077 181.674 133.598 179.407 127.877 178.056C131.549 179.371 135.082 181.061 138.425 183.101C142.396 185.525 146.254 188.599 148.097 192.95C149.94 197.302 149.022 203.172 145.065 205.596C142.275 207.312 138.795 207.005 135.542 206.932C132.731 206.866 129.919 207.013 127.129 207.37C126.122 207.445 125.137 207.712 124.226 208.159C123.038 208.948 122.102 210.078 121.535 211.408C120.391 213.653 119.621 216.079 119.258 218.585C118.859 221.389 118.895 224.463 117.187 226.689C114.866 229.719 111.236 229.26 107.934 229.858C105.066 230.423 102.317 231.5 99.8132 233.042C94.3613 236.422 90.4682 242.599 90.2191 249.192C90.1337 251.543 90.4468 253.945 89.8276 256.208C89.4282 257.529 88.8014 258.765 87.9771 259.859C89.2382 261.242 90.3414 262.768 91.2653 264.408C93.009 262.458 94.824 260.414 95.5357 257.873C96.162 255.61 95.8417 253.2 95.9343 250.849C96.1834 244.278 100.077 238.087 105.528 234.699C108.031 233.155 110.78 232.08 113.649 231.523C116.937 230.917 120.567 231.377 122.902 228.347C124.61 226.156 124.567 223.046 124.973 220.242C125.334 217.737 126.101 215.311 127.243 213.065C127.814 211.747 128.75 210.63 129.934 209.853C130.843 209.4 131.829 209.132 132.838 209.064C135.628 208.708 138.439 208.559 141.25 208.619C144.503 208.699 147.983 208.999 150.773 207.283C154.702 204.837 155.606 198.996 153.777 194.615Z" fill="black"/>
</g>
<path opacity="0.06" d="M107.173 264.379C107.173 264.379 115.578 271.797 131.542 267.299C131.542 267.284 121.656 271.278 107.173 264.379Z" fill="black"/>
<path opacity="0.06" d="M557.99 139.235C558.007 140.362 557.711 141.472 557.136 142.433C556.681 142.991 556.109 143.438 555.464 143.74C552.76 145.11 549.704 145.571 546.729 145.059C543.755 144.546 541.014 143.086 538.895 140.885C537.386 139.25 536.268 137.234 534.781 135.621C533.293 134.007 531.222 132.598 529.087 132.773C527.272 132.919 525.685 134.102 524.439 135.468C522.826 137.261 521.64 139.412 520.973 141.754C520.511 143.419 520.261 145.295 518.93 146.398C517.6 147.5 515.948 147.427 514.354 147.369C512.297 147.296 510.162 147.201 508.354 146.2C504.931 144.317 503.778 139.98 502.511 136.22C500.376 129.882 495.579 117.908 488.113 116.63C484.554 116.024 480.219 117.959 477.437 120.033C473.23 123.165 470.127 125.195 464.682 125.144C463.4 125.169 462.122 124.961 460.91 124.53C457.779 123.267 456.106 119.777 455.601 116.316C455.407 117.903 455.367 119.504 455.48 121.099C455.779 124.881 457.458 128.969 460.91 130.364C462.122 130.795 463.4 131.003 464.682 130.977C470.127 131.065 473.223 129.035 477.437 125.903C480.234 123.829 484.554 121.887 488.113 122.501C495.55 123.742 500.39 135.716 502.482 142.046C503.749 145.813 504.902 150.15 508.326 152.034C510.134 153.027 512.269 153.129 514.326 153.202C515.92 153.261 517.671 153.268 518.902 152.231C520.133 151.194 520.482 149.245 520.945 147.588C521.61 145.245 522.797 143.093 524.411 141.301C525.656 139.936 527.258 138.753 529.058 138.607C531.251 138.432 533.329 139.797 534.752 141.455C536.176 143.112 537.357 145.105 538.866 146.719C540.986 148.92 543.727 150.38 546.701 150.892C549.675 151.405 552.731 150.943 555.435 149.574C556.079 149.269 556.65 148.823 557.108 148.267C557.683 147.303 557.979 146.191 557.962 145.061C558.519 138.912 558.756 132.736 558.674 126.56C558.617 130.787 558.311 135.015 557.99 139.235Z" fill="black"/>
<path d="M63.9206 450.707C63.9206 450.707 65.0523 449.414 62.9242 448.903V446.779H64.2053C64.2025 444.212 63.3408 441.723 61.7642 439.73C60.1876 437.736 57.9916 436.358 55.5435 435.827V433.249H55.878V429.898H47.6433V433.249H47.8782V435.856C45.4531 436.414 43.2856 437.802 41.733 439.793C40.1804 441.784 39.3355 444.258 39.3374 446.808H40.4691V448.845C40.4691 448.845 37.7716 450.152 40.4691 452.495C43.1665 454.839 42.7466 456.533 42.7466 456.533C42.7466 456.533 41.615 460.914 39.3445 461.483V502.1C39.3436 503.286 39.5705 504.46 40.0121 505.556C40.4538 506.652 41.1016 507.647 41.9186 508.486C42.7356 509.325 43.7057 509.99 44.7734 510.444C45.8412 510.898 46.9857 511.132 48.1415 511.132H55.0951C57.4301 511.132 59.6695 510.18 61.3206 508.487C62.9717 506.793 63.8993 504.496 63.8993 502.1V461.483C63.8993 461.483 59.9207 458.424 60.6324 456.533C61.5873 454.511 62.6863 452.563 63.9206 450.707Z" fill="#0E1C36"/>
</g>
<defs>
<linearGradient id="paint0_linear" x1="395.018" y1="518.294" x2="395.018" y2="72.2605" gradientUnits="userSpaceOnUse">
<stop stop-color="#808080" stop-opacity="0.25"/>
<stop offset="0.54" stop-color="#808080" stop-opacity="0.12"/>
<stop offset="1" stop-color="#808080" stop-opacity="0.1"/>
</linearGradient>
<clipPath id="clip0">
<rect width="820" height="563" fill="white"/>
</clipPath>
</defs>
</svg>
